<svg xmlns="http://www.w3.org/2000/svg" viewBox="0 0 356.86 356.88"><defs><style>.cls-1{fill:none;stroke:#231f20;stroke-linecap:round;stroke-miterlimit:10;stroke-width:22px;}</style></defs><g id="Layer_2" data-name="Layer 2"><g id="Layer_1-2" data-name="Layer 1"><path class="cls-1" d="M345.86,122.62h0V345.86H234.24"/><path class="cls-1" d="M78,250.44c.3,24.78-1.57,54.36-10.13,71.49C55.8,346,33.5,346,11,345.86V276.27c0-39.49,22.77-59,44.65-65.49,20-5.91,36.06-5,61.82-6.53,28.5-1.7,57.07-11.64,53-36.38-3.88-23.65-32.09-23.52-56.39-26.53-23.89-3-34.53-16.23-33.43-36.26,1.26-23,26.77-31,51.63-33.66,14.39-1.56,39.19-2,57.3-4.53,13.08-1.79,35.63-9.18,40.68-27.38,3-11,2.89-14.62,4-28.51H11V185.1"/></g></g></svg>