{
  "accessors": [
    {
      "bufferView": 0,
      "componentType": 5126,
      "count": 692,
      "max": [
        43.30397033691406,
        15.934242248535156,
        25.216672897338867
      ],
      "min": [
        -15.444623947143555,
        -16.02906036376953,
        5.582291603088379
      ],
      "type": "VEC3"
    },
    {
      "bufferView": 0,
      "byteOffset": 12,
      "componentType": 5126,
      "count": 692,
      "type": "VEC3"
    },
    {
      "bufferView": 0,
      "byteOffset": 24,
      "componentType": 5126,
      "count": 692,
      "type": "VEC2"
    },
    {
      "bufferView": 1,
      "componentType": 5125,
      "count": 3030,
      "type": "SCALAR"
    },
    {
      "bufferView": 0,
      "byteOffset": 22144,
      "componentType": 5126,
      "count": 110393,
      "max": [
        45.57205581665039,
        17.787851333618164,
        25.550920486450195
      ],
      "min": [
        -27.497102737426758,
        -21.883909225463867,
        -0.1175454780459404
      ],
      "type": "VEC3"
    },
    {
      "bufferView": 0,
      "byteOffset": 22156,
      "componentType": 5126,
      "count": 110393,
      "type": "VEC3"
    },
    {
      "bufferView": 0,
      "byteOffset": 22168,
      "componentType": 5126,
      "count": 110393,
      "type": "VEC2"
    },
    {
      "bufferView": 1,
      "byteOffset": 12120,
      "componentType": 5125,
      "count": 110394,
      "type": "SCALAR"
    }
  ],
  "asset": {
    "version": "2.0"
  },
  "bufferViews": [
    {
      "buffer": 0,
      "byteLength": 3554720,
      "byteStride": 32,
      "target": 34962
    },
    {
      "buffer": 0,
      "byteLength": 453696,
      "byteOffset": 3554720,
      "target": 34963
    }
  ],
  "buffers": [
    {
      "byteLength": 4008416,
      "uri": "levante_recamiere_mirror.bin"
    }
  ],
  "images": [
    {
      "uri": "duotonebasecolortexture.png"
    },
    {
      "uri": "fabric_01basecolortexture.png"
    }
  ],
  "materials": [
    {
      "name": "duotone",
      "pbrMetallicRoughness": {
        "baseColorFactor": [
          0.6130970120429993,
          0.07019370049238205,
          0.020615600049495697,
          1.0
        ],
        "baseColorTexture": {
          "index": 0
        },
        "metallicFactor": 0.0,
        "roughnessFactor": 0.0
      }
    },
    {
      "name": "fabric_01",
      "pbrMetallicRoughness": {
        "baseColorFactor": [
          0.0473795011639595,
          0.013452400453388691,
          0.8698149919509888,
          1.0
        ],
        "baseColorTexture": {
          "index": 1
        },
        "metallicFactor": 0.0,
        "roughnessFactor": 0.0
      }
    }
  ],
  "meshes": [
    {
      "name": "recamiere002",
      "primitives": [
        {
          "attributes": {
            "NORMAL": 1,
            "POSITION": 0,
            "TEXCOORD_0": 2
          },
          "indices": 3,
          "material": 0,
          "mode": 4
        },
        {
          "attributes": {
            "NORMAL": 5,
            "POSITION": 4,
            "TEXCOORD_0": 6
          },
          "indices": 7,
          "material": 1,
          "mode": 4
        }
      ]
    }
  ],
  "nodes": [
    {
      "matrix": [
        0.0254,
        0.0,
        0.0,
        0.0,
        0.0,
        0.0254,
        0.0,
        0.0,
        0.0,
        0.0,
        0.0254,
        0.0,
        0.0,
        0.0,
        0.0,
        1.0
      ],
      "mesh": 0,
      "name": "recamiere002"
    },
    {
      "children": [
        0
      ],
      "matrix": [
        1.0,
        0.0,
        0.0,
        0.0,
        0.0,
        0.0,
        -1.0,
        0.0,
        0.0,
        1.0,
        0.0,
        0.0,
        -0.23157741031646728,
        0.1950035768508911,
        0.07024527626037598,
        1.0
      ]
    }
  ],
  "samplers": [
    {
      "magFilter": 9729,
      "minFilter": 9729,
      "wrapS": 10497,
      "wrapT": 10497
    },
    {
      "magFilter": 9729,
      "minFilter": 9729,
      "wrapS": 10497,
      "wrapT": 10497
    }
  ],
  "scenes": [
    {
      "nodes": [
        1
      ]
    }
  ],
  "textures": [
    {
      "name": "texture_source0_sampler0",
      "sampler": 0,
      "source": 0
    },
    {
      "name": "texture_source1_sampler1",
      "sampler": 1,
      "source": 1
    }
  ]
}
