{
  "accessors": [
    {
      "bufferView": 0,
      "componentType": 5126,
      "count": 613,
      "max": [
        34.635894775390625,
        -1.5346812009811401,
        22.917131423950195
      ],
      "min": [
        -4.379726409912109,
        -21.903457641601563,
        -30.3730525970459
      ],
      "type": "VEC3"
    },
    {
      "bufferView": 0,
      "byteOffset": 12,
      "componentType": 5126,
      "count": 613,
      "type": "VEC3"
    },
    {
      "bufferView": 0,
      "byteOffset": 24,
      "componentType": 5126,
      "count": 613,
      "type": "VEC2"
    },
    {
      "bufferView": 1,
      "componentType": 5125,
      "count": 2550,
      "type": "SCALAR"
    },
    {
      "bufferView": 0,
      "byteOffset": 19616,
      "componentType": 5126,
      "count": 17723,
      "max": [
        39.25727081298828,
        5.8849053382873535,
        25.056669235229492
      ],
      "min": [
        -15.645493507385254,
        -22.211196899414063,
        -37.52333068847656
      ],
      "type": "VEC3"
    },
    {
      "bufferView": 0,
      "byteOffset": 19628,
      "componentType": 5126,
      "count": 17723,
      "type": "VEC3"
    },
    {
      "bufferView": 0,
      "byteOffset": 19640,
      "componentType": 5126,
      "count": 17723,
      "type": "VEC2"
    },
    {
      "bufferView": 1,
      "byteOffset": 10200,
      "componentType": 5125,
      "count": 78294,
      "type": "SCALAR"
    }
  ],
  "asset": {
    "version": "2.0"
  },
  "bufferViews": [
    {
      "buffer": 0,
      "byteLength": 586752,
      "byteStride": 32,
      "target": 34962
    },
    {
      "buffer": 0,
      "byteLength": 323376,
      "byteOffset": 586752,
      "target": 34963
    }
  ],
  "buffers": [
    {
      "byteLength": 910128,
      "uri": "levante_longchair.bin"
    }
  ],
  "images": [
    {
      "uri": "duotonebasecolortexture.png"
    },
    {
      "uri": "fabric_01basecolortexture.png"
    }
  ],
  "materials": [
    {
      "name": "duotone",
      "pbrMetallicRoughness": {
        "baseColorFactor": [
          0.6130970120429993,
          0.07019370049238205,
          0.020615600049495697,
          1.0
        ],
        "baseColorTexture": {
          "index": 0
        },
        "metallicFactor": 0.0,
        "roughnessFactor": 0.0
      }
    },
    {
      "name": "fabric_01",
      "pbrMetallicRoughness": {
        "baseColorFactor": [
          0.0473795011639595,
          0.013452400453388691,
          0.8698149919509888,
          1.0
        ],
        "baseColorTexture": {
          "index": 1
        },
        "metallicFactor": 0.0,
        "roughnessFactor": 0.0
      }
    }
  ],
  "meshes": [
    {
      "name": "longchair",
      "primitives": [
        {
          "attributes": {
            "NORMAL": 1,
            "POSITION": 0,
            "TEXCOORD_0": 2
          },
          "indices": 3,
          "material": 0,
          "mode": 4
        },
        {
          "attributes": {
            "NORMAL": 5,
            "POSITION": 4,
            "TEXCOORD_0": 6
          },
          "indices": 7,
          "material": 1,
          "mode": 4
        }
      ]
    }
  ],
  "nodes": [
    {
      "matrix": [
        0.0254,
        0.0,
        0.0,
        0.0,
        0.0,
        0.0254,
        0.0,
        0.0,
        0.0,
        0.0,
        0.0254,
        0.0,
        0.0,
        0.0,
        0.0,
        1.0
      ],
      "mesh": 0,
      "name": "longchair"
    },
    {
      "children": [
        0
      ],
      "matrix": [
        0.9773558974266051,
        -7.450581485102248e-09,
        0.21160262823104856,
        0.0,
        -4.1756308633011934e-08,
        -1.0,
        1.5765490957164727e-07,
        0.0,
        0.211602583527565,
        -1.629206707320918e-07,
        -0.9773557186126709,
        0.0,
        0.8207034904479981,
        0.32205790977478027,
        -0.34537458248138425,
        1.0
      ]
    }
  ],
  "samplers": [
    {
      "magFilter": 9729,
      "minFilter": 9729,
      "wrapS": 10497,
      "wrapT": 10497
    },
    {
      "magFilter": 9729,
      "minFilter": 9729,
      "wrapS": 10497,
      "wrapT": 10497
    }
  ],
  "scenes": [
    {
      "nodes": [
        1
      ]
    }
  ],
  "textures": [
    {
      "name": "texture_source0_sampler0",
      "sampler": 0,
      "source": 0
    },
    {
      "name": "texture_source1_sampler1",
      "sampler": 1,
      "source": 1
    }
  ]
}
