{
  "accessors": [
    {
      "bufferView": 0,
      "componentType": 5126,
      "count": 18002,
      "max": [
        87.69766235351563,
        2.3213744163513184,
        18.647703170776367
      ],
      "min": [
        50.80287551879883,
        -87.81389617919922,
        -8.866267204284668
      ],
      "type": "VEC3"
    },
    {
      "bufferView": 0,
      "byteOffset": 12,
      "componentType": 5126,
      "count": 18002,
      "type": "VEC3"
    },
    {
      "bufferView": 1,
      "componentType": 5125,
      "count": 105216,
      "type": "SCALAR"
    },
    {
      "bufferView": 0,
      "byteOffset": 576064,
      "componentType": 5126,
      "count": 943,
      "max": [
        85.72962951660156,
        -0.14591550827026367,
        18.31285858154297
      ],
      "min": [
        59.23991775512695,
        -86.4986572265625,
        -1.4575198888778687
      ],
      "type": "VEC3"
    },
    {
      "bufferView": 0,
      "byteOffset": 576076,
      "componentType": 5126,
      "count": 943,
      "type": "VEC3"
    },
    {
      "bufferView": 1,
      "byteOffset": 420864,
      "componentType": 5125,
      "count": 4632,
      "type": "SCALAR"
    }
  ],
  "asset": {
    "version": "2.0"
  },
  "bufferViews": [
    {
      "buffer": 0,
      "byteLength": 606240,
      "byteStride": 32,
      "target": 34962
    },
    {
      "buffer": 0,
      "byteLength": 439392,
      "byteOffset": 606240,
      "target": 34963
    }
  ],
  "buffers": [
    {
      "byteLength": 1045632,
      "uri": "levante_m_female.bin"
    }
  ],
  "materials": [
    {
      "name": "default",
      "pbrMetallicRoughness": {
        "baseColorFactor": [
          0.0,
          0.1333329975605011,
          1.0,
          1.0
        ],
        "metallicFactor": 0.0,
        "roughnessFactor": 0.0
      }
    },
    {
      "name": "duotone",
      "pbrMetallicRoughness": {
        "baseColorFactor": [
          1.0,
          0.34666699171066284,
          0.0,
          1.0
        ],
        "metallicFactor": 0.0,
        "roughnessFactor": 0.0
      }
    }
  ],
  "meshes": [
    {
      "name": "levante_m_female",
      "primitives": [
        {
          "attributes": {
            "NORMAL": 1,
            "POSITION": 0
          },
          "indices": 2,
          "material": 0,
          "mode": 4
        },
        {
          "attributes": {
            "NORMAL": 4,
            "POSITION": 3
          },
          "indices": 5,
          "material": 1,
          "mode": 4
        }
      ]
    }
  ],
  "nodes": [
    {
      "matrix": [
        0.0254,
        0.0,
        0.0,
        0.0,
        0.0,
        0.0254,
        0.0,
        0.0,
        0.0,
        0.0,
        0.0254,
        0.0,
        0.0,
        0.0,
        0.0,
        1.0
      ],
      "mesh": 0,
      "name": "levante_m_female"
    },
    {
      "children": [
        0
      ],
      "matrix": [
        1.0,
        0.0,
        0.0,
        0.0,
        0.0,
        0.0,
        -1.0,
        0.0,
        0.0,
        1.0,
        0.0,
        0.0,
        -0.8805074951171875,
        0.4172193492889404,
        -0.929478246307373,
        1.0
      ]
    }
  ],
  "scenes": [
    {
      "nodes": [
        1
      ]
    }
  ]
}
