{
  "accessors": [
    {
      "bufferView": 0,
      "componentType": 5126,
      "count": 1452,
      "max": [
        28.213909149169922,
        2.074960708618164,
        -4.520414352416992
      ],
      "min": [
        -3.5373024940490723,
        -24.43562126159668,
        -4.647428512573242
      ],
      "type": "VEC3"
    },
    {
      "bufferView": 0,
      "byteOffset": 12,
      "componentType": 5126,
      "count": 1452,
      "type": "VEC3"
    },
    {
      "bufferView": 1,
      "componentType": 5125,
      "count": 6156,
      "type": "SCALAR"
    },
    {
      "bufferView": 0,
      "byteOffset": 46464,
      "componentType": 5126,
      "count": 1136,
      "max": [
        28.337759017944336,
        2.1031036376953125,
        4.647429466247559
      ],
      "min": [
        -3.8188514709472656,
        -24.632455825805664,
        -4.579263687133789
      ],
      "type": "VEC3"
    },
    {
      "bufferView": 0,
      "byteOffset": 46476,
      "componentType": 5126,
      "count": 1136,
      "type": "VEC3"
    },
    {
      "bufferView": 1,
      "byteOffset": 24624,
      "componentType": 5125,
      "count": 4752,
      "type": "SCALAR"
    }
  ],
  "asset": {
    "version": "2.0"
  },
  "bufferViews": [
    {
      "buffer": 0,
      "byteLength": 82816,
      "byteStride": 32,
      "target": 34962
    },
    {
      "buffer": 0,
      "byteLength": 43632,
      "byteOffset": 82816,
      "target": 34963
    }
  ],
  "buffers": [
    {
      "byteLength": 126448,
      "uri": "levante_legs_footstool.bin"
    }
  ],
  "materials": [
    {
      "name": "black",
      "pbrMetallicRoughness": {
        "baseColorFactor": [
          0.09220340102910995,
          3.030750050925235e-08,
          0.1016950011253357,
          1.0
        ],
        "metallicFactor": 0.0,
        "roughnessFactor": 0.0
      }
    },
    {
      "name": "leg",
      "pbrMetallicRoughness": {
        "baseColorFactor": [
          0.0,
          0.9599999785423279,
          1.0,
          1.0
        ],
        "metallicFactor": 0.0,
        "roughnessFactor": 0.0
      }
    }
  ],
  "meshes": [
    {
      "name": "leg_footstool",
      "primitives": [
        {
          "attributes": {
            "NORMAL": 1,
            "POSITION": 0
          },
          "indices": 2,
          "material": 0,
          "mode": 4
        },
        {
          "attributes": {
            "NORMAL": 4,
            "POSITION": 3
          },
          "indices": 5,
          "material": 1,
          "mode": 4
        }
      ]
    }
  ],
  "nodes": [
    {
      "matrix": [
        0.0254,
        0.0,
        0.0,
        0.0,
        0.0,
        0.0254,
        0.0,
        0.0,
        0.0,
        0.0,
        0.0254,
        0.0,
        0.0,
        0.0,
        0.0,
        1.0
      ],
      "mesh": 0,
      "name": "leg_footstool"
    },
    {
      "children": [
        0
      ],
      "matrix": [
        -0.9828105568885803,
        0.0,
        -0.18461737036705017,
        0.0,
        -0.18461737036705017,
        0.0,
        0.9828105568885803,
        0.0,
        0.0,
        1.0,
        0.0,
        0.0,
        0.3699984186172485,
        0.08804472274780273,
        0.41498867149353025,
        1.0
      ]
    }
  ],
  "scenes": [
    {
      "nodes": [
        1
      ]
    }
  ]
}
