{
  "accessors": [
    {
      "bufferView": 0,
      "componentType": 5126,
      "count": 24401,
      "max": [
        27.497102737426758,
        17.787853240966797,
        25.550926208496094
      ],
      "min": [
        -45.57205581665039,
        -21.883914947509766,
        -0.11754238605499268
      ],
      "type": "VEC3"
    },
    {
      "bufferView": 0,
      "byteOffset": 12,
      "componentType": 5126,
      "count": 24401,
      "type": "VEC3"
    },
    {
      "bufferView": 0,
      "byteOffset": 24,
      "componentType": 5126,
      "count": 24401,
      "type": "VEC2"
    },
    {
      "bufferView": 1,
      "componentType": 5125,
      "count": 110394,
      "type": "SCALAR"
    },
    {
      "bufferView": 0,
      "byteOffset": 780832,
      "componentType": 5126,
      "count": 677,
      "max": [
        15.444623947143555,
        15.93423080444336,
        25.216684341430664
      ],
      "min": [
        -43.30397033691406,
        -16.029069900512695,
        5.582301616668701
      ],
      "type": "VEC3"
    },
    {
      "bufferView": 0,
      "byteOffset": 780844,
      "componentType": 5126,
      "count": 677,
      "type": "VEC3"
    },
    {
      "bufferView": 0,
      "byteOffset": 780856,
      "componentType": 5126,
      "count": 677,
      "type": "VEC2"
    },
    {
      "bufferView": 1,
      "byteOffset": 441576,
      "componentType": 5125,
      "count": 3030,
      "type": "SCALAR"
    }
  ],
  "asset": {
    "version": "2.0"
  },
  "bufferViews": [
    {
      "buffer": 0,
      "byteLength": 802496,
      "byteStride": 32,
      "target": 34962
    },
    {
      "buffer": 0,
      "byteLength": 453696,
      "byteOffset": 802496,
      "target": 34963
    }
  ],
  "buffers": [
    {
      "byteLength": 1256192,
      "uri": "levante_recamiere.bin"
    }
  ],
  "extensionsUsed": [
    "KHR_materials_clearcoat",
    "KHR_materials_sheen"
  ],
  "images": [
    {
      "uri": "boucle_Normal.png"
    },
    {
      "uri": "defaultmetallicroughnesstex.jpeg"
    },
    {
      "uri": "boucle_Roughness.jpg"
    },
    {
      "uri": "boucle_Normal.png"
    },
    {
      "uri": "defaultsheenroughnesstex.png"
    },
    {
      "uri": "boucle_Normal.png"
    },
    {
      "uri": "duotonemetallicroughnesstex.jpeg"
    },
    {
      "uri": "boucle_Roughness.jpg"
    },
    {
      "uri": "boucle_Normal.png"
    },
    {
      "uri": "duotonesheenroughnesstex.png"
    }
  ],
  "materials": [
    {
      "extensions": {
        "KHR_materials_clearcoat": {
          "clearcoatFactor": 1.0,
          "clearcoatNormalTexture": {
            "index": 3,
            "texCoord": 0
          },
          "clearcoatRoughnessFactor": 1.0,
          "clearcoatRoughnessTexture": {
            "index": 2,
            "texCoord": 0
          }
        },
        "KHR_materials_sheen": {
          "sheenColorFactor": [
            1.0,
            1.0,
            1.0
          ],
          "sheenRoughnessFactor": 1.0,
          "sheenRoughnessTexture": {
            "index": 4,
            "texCoord": 0
          }
        }
      },
      "name": "default",
      "normalTexture": {
        "index": 0
      },
      "pbrMetallicRoughness": {
        "metallicRoughnessTexture": {
          "index": 1
        }
      }
    },
    {
      "extensions": {
        "KHR_materials_clearcoat": {
          "clearcoatFactor": 1.0,
          "clearcoatNormalTexture": {
            "index": 8,
            "texCoord": 0
          },
          "clearcoatRoughnessFactor": 1.0,
          "clearcoatRoughnessTexture": {
            "index": 7,
            "texCoord": 0
          }
        },
        "KHR_materials_sheen": {
          "sheenColorFactor": [
            1.0,
            1.0,
            1.0
          ],
          "sheenRoughnessFactor": 1.0,
          "sheenRoughnessTexture": {
            "index": 9,
            "texCoord": 0
          }
        }
      },
      "name": "duotone",
      "normalTexture": {
        "index": 5
      },
      "pbrMetallicRoughness": {
        "baseColorFactor": [
          1.0,
          0.0,
          0.0,
          1.0
        ],
        "metallicRoughnessTexture": {
          "index": 6
        }
      }
    }
  ],
  "meshes": [
    {
      "name": "recamiere",
      "primitives": [
        {
          "attributes": {
            "NORMAL": 1,
            "POSITION": 0,
            "TEXCOORD_0": 2
          },
          "indices": 3,
          "material": 0,
          "mode": 4
        },
        {
          "attributes": {
            "NORMAL": 5,
            "POSITION": 4,
            "TEXCOORD_0": 6
          },
          "indices": 7,
          "material": 1,
          "mode": 4
        }
      ]
    }
  ],
  "nodes": [
    {
      "matrix": [
        0.0254,
        0.0,
        0.0,
        0.0,
        0.0,
        0.0254,
        0.0,
        0.0,
        0.0,
        0.0,
        0.0254,
        0.0,
        0.0,
        0.0,
        0.0,
        1.0
      ],
      "mesh": 0,
      "name": "recamiere"
    },
    {
      "children": [
        0
      ],
      "matrix": [
        1.0,
        0.0,
        0.0,
        0.0,
        0.0,
        -1.7484555314695172e-07,
        -1.0,
        0.0,
        0.0,
        1.0,
        -1.7484555314695172e-07,
        0.0,
        0.22527069740295408,
        0.19500360107421874,
        0.07024527626037598,
        1.0
      ]
    }
  ],
  "samplers": [
    {
      "magFilter": 9729,
      "minFilter": 9729,
      "wrapS": 10497,
      "wrapT": 10497
    },
    {
      "magFilter": 9729,
      "minFilter": 9729,
      "wrapS": 10497,
      "wrapT": 10497
    },
    {
      "magFilter": 9729,
      "minFilter": 9729,
      "wrapS": 10497,
      "wrapT": 10497
    },
    {
      "magFilter": 9729,
      "minFilter": 9729,
      "wrapS": 10497,
      "wrapT": 10497
    },
    {
      "magFilter": 9729,
      "minFilter": 9729,
      "wrapS": 10497,
      "wrapT": 10497
    },
    {
      "magFilter": 9729,
      "minFilter": 9729,
      "wrapS": 10497,
      "wrapT": 10497
    },
    {
      "magFilter": 9729,
      "minFilter": 9729,
      "wrapS": 10497,
      "wrapT": 10497
    },
    {
      "magFilter": 9729,
      "minFilter": 9729,
      "wrapS": 10497,
      "wrapT": 10497
    },
    {
      "magFilter": 9729,
      "minFilter": 9729,
      "wrapS": 10497,
      "wrapT": 10497
    },
    {
      "magFilter": 9729,
      "minFilter": 9729,
      "wrapS": 10497,
      "wrapT": 10497
    }
  ],
  "scenes": [
    {
      "nodes": [
        1
      ]
    }
  ],
  "textures": [
    {
      "name": "texture_source0_sampler0",
      "sampler": 0,
      "source": 0
    },
    {
      "name": "texture_source1_sampler1",
      "sampler": 1,
      "source": 1
    },
    {
      "name": "texture_source2_sampler2",
      "sampler": 2,
      "source": 2
    },
    {
      "name": "texture_source3_sampler3",
      "sampler": 3,
      "source": 3
    },
    {
      "name": "texture_source4_sampler4",
      "sampler": 4,
      "source": 4
    },
    {
      "name": "texture_source5_sampler5",
      "sampler": 5,
      "source": 5
    },
    {
      "name": "texture_source6_sampler6",
      "sampler": 6,
      "source": 6
    },
    {
      "name": "texture_source7_sampler7",
      "sampler": 7,
      "source": 7
    },
    {
      "name": "texture_source8_sampler8",
      "sampler": 8,
      "source": 8
    },
    {
      "name": "texture_source9_sampler9",
      "sampler": 9,
      "source": 9
    }
  ]
}
