{
  "accessors": [
    {
      "bufferView": 0,
      "componentType": 5126,
      "count": 24438,
      "max": [
        68.49159240722656,
        8.866267204284668,
        18.365737915039063
      ],
      "min": [
        -6.611287593841553,
        -18.30949592590332,
        -26.799243927001953
      ],
      "type": "VEC3"
    },
    {
      "bufferView": 0,
      "byteOffset": 12,
      "componentType": 5126,
      "count": 24438,
      "type": "VEC3"
    },
    {
      "bufferView": 0,
      "byteOffset": 24,
      "componentType": 5126,
      "count": 24438,
      "type": "VEC2"
    },
    {
      "bufferView": 1,
      "componentType": 5125,
      "count": 108756,
      "type": "SCALAR"
    }
  ],
  "asset": {
    "version": "2.0"
  },
  "bufferViews": [
    {
      "buffer": 0,
      "byteLength": 782016,
      "byteStride": 32,
      "target": 34962
    },
    {
      "buffer": 0,
      "byteLength": 435024,
      "byteOffset": 782016,
      "target": 34963
    }
  ],
  "buffers": [
    {
      "byteLength": 1217040,
      "uri": "levante_s_male.bin"
    }
  ],
  "images": [
    {
      "uri": "M_02___Defaultbasecolortexture.png"
    }
  ],
  "materials": [
    {
      "name": "M_02___Default",
      "pbrMetallicRoughness": {
        "baseColorTexture": {
          "index": 0
        },
        "metallicFactor": 0.0,
        "roughnessFactor": 0.0
      }
    }
  ],
  "meshes": [
    {
      "name": "levante_s_male",
      "primitives": [
        {
          "attributes": {
            "NORMAL": 1,
            "POSITION": 0,
            "TEXCOORD_0": 2
          },
          "indices": 3,
          "material": 0,
          "mode": 4
        }
      ]
    }
  ],
  "nodes": [
    {
      "matrix": [
        0.0254,
        0.0,
        0.0,
        0.0,
        0.0,
        0.0254,
        0.0,
        0.0,
        0.0,
        0.0,
        0.0254,
        0.0,
        0.0,
        0.0,
        0.0,
        1.0
      ],
      "mesh": 0,
      "name": "levante_s_male"
    },
    {
      "children": [
        0
      ],
      "matrix": [
        1.0,
        0.0,
        0.0,
        0.0,
        0.0,
        -1.0000001192092896,
        1.6292069915380125e-07,
        0.0,
        0.0,
        -1.6292069915380125e-07,
        -1.0000001192092896,
        0.0,
        -0.8805074951171875,
        0.4172193492889404,
        -0.9294781494140625,
        1.0
      ]
    }
  ],
  "samplers": [
    {
      "magFilter": 9729,
      "minFilter": 9729,
      "wrapS": 10497,
      "wrapT": 10497
    }
  ],
  "scenes": [
    {
      "nodes": [
        1
      ]
    }
  ],
  "textures": [
    {
      "name": "texture_source0_sampler0",
      "sampler": 0,
      "source": 0
    }
  ]
}
