{
  "accessors": [
    {
      "bufferView": 0,
      "componentType": 5126,
      "count": 1108,
      "max": [
        33.83091354370117,
        -13.394598960876465,
        13.718242645263672
      ],
      "min": [
        -33.830909729003906,
        -32.72925567626953,
        -18.8009033203125
      ],
      "type": "VEC3"
    },
    {
      "bufferView": 0,
      "byteOffset": 12,
      "componentType": 5126,
      "count": 1108,
      "type": "VEC3"
    },
    {
      "bufferView": 0,
      "byteOffset": 24,
      "componentType": 5126,
      "count": 1108,
      "type": "VEC2"
    },
    {
      "bufferView": 1,
      "componentType": 5125,
      "count": 4692,
      "type": "SCALAR"
    },
    {
      "bufferView": 0,
      "byteOffset": 35456,
      "componentType": 5126,
      "count": 29313,
      "max": [
        36.36602783203125,
        -7.559764862060547,
        15.022281646728516
      ],
      "min": [
        -36.36602783203125,
        -33.30938720703125,
        -24.649477005004883
      ],
      "type": "VEC3"
    },
    {
      "bufferView": 0,
      "byteOffset": 35468,
      "componentType": 5126,
      "count": 29313,
      "type": "VEC3"
    },
    {
      "bufferView": 0,
      "byteOffset": 35480,
      "componentType": 5126,
      "count": 29313,
      "type": "VEC2"
    },
    {
      "bufferView": 1,
      "byteOffset": 18768,
      "componentType": 5125,
      "count": 127488,
      "type": "SCALAR"
    }
  ],
  "asset": {
    "version": "2.0"
  },
  "bufferViews": [
    {
      "buffer": 0,
      "byteLength": 973472,
      "byteStride": 32,
      "target": 34962
    },
    {
      "buffer": 0,
      "byteLength": 528720,
      "byteOffset": 973472,
      "target": 34963
    }
  ],
  "buffers": [
    {
      "byteLength": 1502192,
      "uri": "levante_sofa_25.bin"
    }
  ],
  "images": [
    {
      "uri": "duotonebasecolortexture.png"
    },
    {
      "uri": "fabric_01basecolortexture.png"
    }
  ],
  "materials": [
    {
      "name": "duotone",
      "pbrMetallicRoughness": {
        "baseColorFactor": [
          0.6130970120429993,
          0.07019370049238205,
          0.020615600049495697,
          1.0
        ],
        "baseColorTexture": {
          "index": 0
        },
        "metallicFactor": 0.0,
        "roughnessFactor": 0.0
      }
    },
    {
      "name": "fabric_01",
      "pbrMetallicRoughness": {
        "baseColorFactor": [
          0.0473795011639595,
          0.013452400453388691,
          0.8698149919509888,
          1.0
        ],
        "baseColorTexture": {
          "index": 1
        },
        "metallicFactor": 0.0,
        "roughnessFactor": 0.0
      }
    }
  ],
  "meshes": [
    {
      "name": "sofa_25",
      "primitives": [
        {
          "attributes": {
            "NORMAL": 1,
            "POSITION": 0,
            "TEXCOORD_0": 2
          },
          "indices": 3,
          "material": 0,
          "mode": 4
        },
        {
          "attributes": {
            "NORMAL": 5,
            "POSITION": 4,
            "TEXCOORD_0": 6
          },
          "indices": 7,
          "material": 1,
          "mode": 4
        }
      ]
    }
  ],
  "nodes": [
    {
      "matrix": [
        0.0254,
        0.0,
        0.0,
        0.0,
        0.0,
        0.0254,
        0.0,
        0.0,
        0.0,
        0.0,
        0.0254,
        0.0,
        0.0,
        0.0,
        0.0,
        1.0
      ],
      "mesh": 0,
      "name": "sofa_25"
    },
    {
      "children": [
        0
      ],
      "matrix": [
        0.9999999999999998,
        0.0,
        0.0,
        0.0,
        0.0,
        -0.9999998211860656,
        6.397577294592337e-07,
        0.0,
        0.0,
        -6.397577294592337e-07,
        -0.9999998211860656,
        0.0,
        0.0,
        0.0,
        0.0,
        1.0
      ]
    }
  ],
  "samplers": [
    {
      "magFilter": 9729,
      "minFilter": 9729,
      "wrapS": 10497,
      "wrapT": 10497
    },
    {
      "magFilter": 9729,
      "minFilter": 9729,
      "wrapS": 10497,
      "wrapT": 10497
    }
  ],
  "scenes": [
    {
      "nodes": [
        1
      ]
    }
  ],
  "textures": [
    {
      "name": "texture_source0_sampler0",
      "sampler": 0,
      "source": 0
    },
    {
      "name": "texture_source1_sampler1",
      "sampler": 1,
      "source": 1
    }
  ]
}
