{
  "accessors": [
    {
      "bufferView": 0,
      "componentType": 5126,
      "count": 18153,
      "max": [
        68.49159240722656,
        18.365737915039063,
        18.30949592590332
      ],
      "min": [
        -18.4697208404541,
        -26.799243927001953,
        -8.866267204284668
      ],
      "type": "VEC3"
    },
    {
      "bufferView": 0,
      "byteOffset": 12,
      "componentType": 5126,
      "count": 18153,
      "type": "VEC3"
    },
    {
      "bufferView": 1,
      "componentType": 5125,
      "count": 105195,
      "type": "SCALAR"
    },
    {
      "bufferView": 0,
      "byteOffset": 580896,
      "componentType": 5126,
      "count": 747,
      "max": [
        67.97172546386719,
        15.929191589355469,
        18.002981185913086
      ],
      "min": [
        -16.29827308654785,
        -15.898618698120117,
        -1.703089714050293
      ],
      "type": "VEC3"
    },
    {
      "bufferView": 0,
      "byteOffset": 580908,
      "componentType": 5126,
      "count": 747,
      "type": "VEC3"
    },
    {
      "bufferView": 1,
      "byteOffset": 420780,
      "componentType": 5125,
      "count": 3561,
      "type": "SCALAR"
    }
  ],
  "asset": {
    "version": "2.0"
  },
  "bufferViews": [
    {
      "buffer": 0,
      "byteLength": 604800,
      "byteStride": 32,
      "target": 34962
    },
    {
      "buffer": 0,
      "byteLength": 435024,
      "byteOffset": 604800,
      "target": 34963
    }
  ],
  "buffers": [
    {
      "byteLength": 1039824,
      "uri": "levante_l_male.bin"
    }
  ],
  "materials": [
    {
      "name": "default",
      "pbrMetallicRoughness": {
        "baseColorFactor": [
          0.0,
          0.1333329975605011,
          1.0,
          1.0
        ],
        "metallicFactor": 0.0,
        "roughnessFactor": 0.0
      }
    },
    {
      "name": "duotone",
      "pbrMetallicRoughness": {
        "baseColorFactor": [
          1.0,
          0.34666699171066284,
          0.0,
          1.0
        ],
        "metallicFactor": 0.0,
        "roughnessFactor": 0.0
      }
    }
  ],
  "meshes": [
    {
      "name": "levante_l_male",
      "primitives": [
        {
          "attributes": {
            "NORMAL": 1,
            "POSITION": 0
          },
          "indices": 2,
          "material": 0,
          "mode": 4
        },
        {
          "attributes": {
            "NORMAL": 4,
            "POSITION": 3
          },
          "indices": 5,
          "material": 1,
          "mode": 4
        }
      ]
    }
  ],
  "nodes": [
    {
      "matrix": [
        0.0254,
        0.0,
        0.0,
        0.0,
        0.0,
        0.0254,
        0.0,
        0.0,
        0.0,
        0.0,
        0.0254,
        0.0,
        0.0,
        0.0,
        0.0,
        1.0
      ],
      "mesh": 0,
      "name": "levante_l_male"
    },
    {
      "children": [
        0
      ],
      "matrix": [
        1.0,
        0.0,
        0.0,
        0.0,
        0.0,
        0.0,
        -1.0,
        0.0,
        0.0,
        1.0,
        0.0,
        0.0,
        -0.8805074951171875,
        0.4172193492889404,
        -0.9294781494140625,
        1.0
      ]
    }
  ],
  "scenes": [
    {
      "nodes": [
        1
      ]
    }
  ]
}
