{
  "accessors": [
    {
      "bufferView": 0,
      "componentType": 5126,
      "count": 18072,
      "max": [
        87.73766326904297,
        2.3213744163513184,
        18.647703170776367
      ],
      "min": [
        50.80287551879883,
        -91.51598358154297,
        -8.866267204284668
      ],
      "type": "VEC3"
    },
    {
      "bufferView": 0,
      "byteOffset": 12,
      "componentType": 5126,
      "count": 18072,
      "type": "VEC3"
    },
    {
      "bufferView": 1,
      "componentType": 5125,
      "count": 105582,
      "type": "SCALAR"
    },
    {
      "bufferView": 0,
      "byteOffset": 578304,
      "componentType": 5126,
      "count": 885,
      "max": [
        85.76963806152344,
        -0.14591550827026367,
        18.31285858154297
      ],
      "min": [
        61.32164764404297,
        -90.20074462890625,
        -1.4973106384277344
      ],
      "type": "VEC3"
    },
    {
      "bufferView": 0,
      "byteOffset": 578316,
      "componentType": 5126,
      "count": 885,
      "type": "VEC3"
    },
    {
      "bufferView": 1,
      "byteOffset": 422328,
      "componentType": 5125,
      "count": 4266,
      "type": "SCALAR"
    }
  ],
  "asset": {
    "version": "2.0"
  },
  "bufferViews": [
    {
      "buffer": 0,
      "byteLength": 606624,
      "byteStride": 32,
      "target": 34962
    },
    {
      "buffer": 0,
      "byteLength": 439392,
      "byteOffset": 606624,
      "target": 34963
    }
  ],
  "buffers": [
    {
      "byteLength": 1046016,
      "uri": "levante_l_female.bin"
    }
  ],
  "materials": [
    {
      "name": "default",
      "pbrMetallicRoughness": {
        "baseColorFactor": [
          0.0,
          0.1333329975605011,
          1.0,
          1.0
        ],
        "metallicFactor": 0.0,
        "roughnessFactor": 0.0
      }
    },
    {
      "name": "duotone",
      "pbrMetallicRoughness": {
        "baseColorFactor": [
          1.0,
          0.34666699171066284,
          0.0,
          1.0
        ],
        "metallicFactor": 0.0,
        "roughnessFactor": 0.0
      }
    }
  ],
  "meshes": [
    {
      "name": "levante_l_female",
      "primitives": [
        {
          "attributes": {
            "NORMAL": 1,
            "POSITION": 0
          },
          "indices": 2,
          "material": 0,
          "mode": 4
        },
        {
          "attributes": {
            "NORMAL": 4,
            "POSITION": 3
          },
          "indices": 5,
          "material": 1,
          "mode": 4
        }
      ]
    }
  ],
  "nodes": [
    {
      "matrix": [
        0.0254,
        0.0,
        0.0,
        0.0,
        0.0,
        0.0254,
        0.0,
        0.0,
        0.0,
        0.0,
        0.0254,
        0.0,
        0.0,
        0.0,
        0.0,
        1.0
      ],
      "mesh": 0,
      "name": "levante_l_female"
    },
    {
      "children": [
        0
      ],
      "matrix": [
        1.0,
        0.0,
        0.0,
        0.0,
        0.0,
        0.0,
        -1.0,
        0.0,
        0.0,
        1.0,
        0.0,
        0.0,
        -0.8805074951171875,
        0.4172193492889404,
        -0.9294781494140625,
        1.0
      ]
    }
  ],
  "scenes": [
    {
      "nodes": [
        1
      ]
    }
  ]
}
