{
  "accessors": [
    {
      "bufferView": 0,
      "componentType": 5126,
      "count": 25447,
      "max": [
        27.497102737426758,
        0.11754238605499268,
        17.787853240966797
      ],
      "min": [
        -45.57205581665039,
        -25.550926208496094,
        -21.883914947509766
      ],
      "type": "VEC3"
    },
    {
      "bufferView": 0,
      "byteOffset": 12,
      "componentType": 5126,
      "count": 25447,
      "type": "VEC3"
    },
    {
      "bufferView": 0,
      "byteOffset": 24,
      "componentType": 5126,
      "count": 25447,
      "type": "VEC2"
    },
    {
      "bufferView": 1,
      "componentType": 5125,
      "count": 113424,
      "type": "SCALAR"
    }
  ],
  "asset": {
    "version": "2.0"
  },
  "bufferViews": [
    {
      "buffer": 0,
      "byteLength": 814304,
      "byteStride": 32,
      "target": 34962
    },
    {
      "buffer": 0,
      "byteLength": 453696,
      "byteOffset": 814304,
      "target": 34963
    }
  ],
  "buffers": [
    {
      "byteLength": 1268000,
      "uri": "levante_recamiere_mirror.bin"
    }
  ],
  "images": [
    {
      "uri": "M_02___Defaultbasecolortexture.png"
    }
  ],
  "materials": [
    {
      "name": "M_02___Default",
      "pbrMetallicRoughness": {
        "baseColorTexture": {
          "index": 0
        },
        "metallicFactor": 0.0,
        "roughnessFactor": 0.0
      }
    }
  ],
  "meshes": [
    {
      "name": "recamiere001",
      "primitives": [
        {
          "attributes": {
            "NORMAL": 1,
            "POSITION": 0,
            "TEXCOORD_0": 2
          },
          "indices": 3,
          "material": 0,
          "mode": 4
        }
      ]
    }
  ],
  "nodes": [
    {
      "matrix": [
        0.0254,
        0.0,
        0.0,
        0.0,
        0.0,
        0.0254,
        0.0,
        0.0,
        0.0,
        0.0,
        0.0254,
        0.0,
        0.0,
        0.0,
        0.0,
        1.0
      ],
      "mesh": 0,
      "name": "recamiere001"
    },
    {
      "children": [
        0
      ],
      "matrix": [
        -0.9999999999999998,
        -0.0,
        0.0,
        0.0,
        -0.0,
        -0.9999998211860656,
        4.331257059675408e-07,
        0.0,
        0.0,
        -4.331257059675408e-07,
        -0.9999998211860656,
        0.0,
        -0.22527072162628173,
        0.19500358896255493,
        0.07024527626037598,
        1.0
      ]
    }
  ],
  "samplers": [
    {
      "magFilter": 9729,
      "minFilter": 9729,
      "wrapS": 10497,
      "wrapT": 10497
    }
  ],
  "scenes": [
    {
      "nodes": [
        1
      ]
    }
  ],
  "textures": [
    {
      "name": "texture_source0_sampler0",
      "sampler": 0,
      "source": 0
    }
  ]
}
