{
  "accessors": [
    {
      "bufferView": 0,
      "componentType": 5126,
      "count": 532,
      "max": [
        84.02749633789063,
        -61.634220123291016,
        -8.312199592590332
      ],
      "min": [
        61.366397857666016,
        -72.86782836914063,
        -17.540019989013672
      ],
      "type": "VEC3"
    },
    {
      "bufferView": 0,
      "byteOffset": 12,
      "componentType": 5126,
      "count": 532,
      "type": "VEC3"
    },
    {
      "bufferView": 1,
      "componentType": 5125,
      "count": 3168,
      "type": "SCALAR"
    },
    {
      "bufferView": 0,
      "byteOffset": 17024,
      "componentType": 5126,
      "count": 688,
      "max": [
        83.7112045288086,
        -62.63414001464844,
        -17.481164932250977
      ],
      "min": [
        61.51211929321289,
        -72.7224349975586,
        -17.608184814453125
      ],
      "type": "VEC3"
    },
    {
      "bufferView": 0,
      "byteOffset": 17036,
      "componentType": 5126,
      "count": 688,
      "type": "VEC3"
    },
    {
      "bufferView": 1,
      "byteOffset": 12672,
      "componentType": 5125,
      "count": 4104,
      "type": "SCALAR"
    }
  ],
  "asset": {
    "version": "2.0"
  },
  "bufferViews": [
    {
      "buffer": 0,
      "byteLength": 39040,
      "byteStride": 32,
      "target": 34962
    },
    {
      "buffer": 0,
      "byteLength": 29088,
      "byteOffset": 39040,
      "target": 34963
    }
  ],
  "buffers": [
    {
      "byteLength": 68128,
      "uri": "levante_leg_corner_right.bin"
    }
  ],
  "materials": [
    {
      "name": "Material__201",
      "pbrMetallicRoughness": {
        "baseColorFactor": [
          0.5,
          0.5,
          0.5,
          1.0
        ],
        "metallicFactor": 0.0,
        "roughnessFactor": 0.0
      }
    },
    {
      "name": "Material__202",
      "pbrMetallicRoughness": {
        "baseColorFactor": [
          0.5,
          0.5,
          0.5,
          1.0
        ],
        "metallicFactor": 0.0,
        "roughnessFactor": 0.0
      }
    }
  ],
  "meshes": [
    {
      "name": "leg_corner_right",
      "primitives": [
        {
          "attributes": {
            "NORMAL": 1,
            "POSITION": 0
          },
          "indices": 2,
          "material": 0,
          "mode": 4
        },
        {
          "attributes": {
            "NORMAL": 4,
            "POSITION": 3
          },
          "indices": 5,
          "material": 1,
          "mode": 4
        }
      ]
    }
  ],
  "nodes": [
    {
      "matrix": [
        0.0254,
        0.0,
        0.0,
        0.0,
        0.0,
        0.0254,
        0.0,
        0.0,
        0.0,
        0.0,
        0.0254,
        0.0,
        0.0,
        0.0,
        0.0,
        1.0
      ],
      "mesh": 0,
      "name": "leg_corner_right"
    },
    {
      "children": [
        0
      ],
      "matrix": [
        1.0,
        0.0,
        0.0,
        0.0,
        0.0,
        0.0,
        -1.0,
        0.0,
        0.0,
        1.0,
        0.0,
        0.0,
        -0.8805074951171875,
        0.4172193492889404,
        -0.9294781494140625,
        1.0
      ]
    }
  ],
  "scenes": [
    {
      "nodes": [
        1
      ]
    }
  ]
}
