{
  "accessors": [
    {
      "bufferView": 0,
      "componentType": 5126,
      "count": 1070,
      "max": [
        85.76963806152344,
        1.5093872547149658,
        -0.14591550827026367
      ],
      "min": [
        61.32164764404297,
        -18.31285858154297,
        -78.427734375
      ],
      "type": "VEC3"
    },
    {
      "bufferView": 0,
      "byteOffset": 12,
      "componentType": 5126,
      "count": 1070,
      "type": "VEC3"
    },
    {
      "bufferView": 0,
      "byteOffset": 24,
      "componentType": 5126,
      "count": 1070,
      "type": "VEC2"
    },
    {
      "bufferView": 1,
      "componentType": 5125,
      "count": 4536,
      "type": "SCALAR"
    },
    {
      "bufferView": 0,
      "byteOffset": 34240,
      "componentType": 5126,
      "count": 23842,
      "max": [
        87.73765563964844,
        8.866267204284668,
        2.3213744163513184
      ],
      "min": [
        50.80287551879883,
        -18.647703170776367,
        -79.74297332763672
      ],
      "type": "VEC3"
    },
    {
      "bufferView": 0,
      "byteOffset": 34252,
      "componentType": 5126,
      "count": 23842,
      "type": "VEC3"
    },
    {
      "bufferView": 0,
      "byteOffset": 34264,
      "componentType": 5126,
      "count": 23842,
      "type": "VEC2"
    },
    {
      "bufferView": 1,
      "byteOffset": 18144,
      "componentType": 5125,
      "count": 105312,
      "type": "SCALAR"
    }
  ],
  "asset": {
    "version": "2.0"
  },
  "bufferViews": [
    {
      "buffer": 0,
      "byteLength": 797184,
      "byteStride": 32,
      "target": 34962
    },
    {
      "buffer": 0,
      "byteLength": 439392,
      "byteOffset": 797184,
      "target": 34963
    }
  ],
  "buffers": [
    {
      "byteLength": 1236576,
      "uri": "levante_s_female.bin"
    }
  ],
  "images": [
    {
      "uri": "duotonebasecolortexture.png"
    },
    {
      "uri": "fabric_01basecolortexture.png"
    }
  ],
  "materials": [
    {
      "name": "duotone",
      "pbrMetallicRoughness": {
        "baseColorFactor": [
          0.6130970120429993,
          0.07019370049238205,
          0.020615600049495697,
          1.0
        ],
        "baseColorTexture": {
          "index": 0
        },
        "metallicFactor": 0.0,
        "roughnessFactor": 0.0
      }
    },
    {
      "name": "fabric_01",
      "pbrMetallicRoughness": {
        "baseColorFactor": [
          0.0473795011639595,
          0.013452400453388691,
          0.8698149919509888,
          1.0
        ],
        "baseColorTexture": {
          "index": 1
        },
        "metallicFactor": 0.0,
        "roughnessFactor": 0.0
      }
    }
  ],
  "meshes": [
    {
      "name": "levante_s_female",
      "primitives": [
        {
          "attributes": {
            "NORMAL": 1,
            "POSITION": 0,
            "TEXCOORD_0": 2
          },
          "indices": 3,
          "material": 0,
          "mode": 4
        },
        {
          "attributes": {
            "NORMAL": 5,
            "POSITION": 4,
            "TEXCOORD_0": 6
          },
          "indices": 7,
          "material": 1,
          "mode": 4
        }
      ]
    }
  ],
  "nodes": [
    {
      "matrix": [
        0.0254,
        0.0,
        0.0,
        0.0,
        0.0,
        0.0254,
        0.0,
        0.0,
        0.0,
        0.0,
        0.0254,
        0.0,
        0.0,
        0.0,
        0.0,
        1.0
      ],
      "mesh": 0,
      "name": "levante_s_female"
    },
    {
      "children": [
        0
      ],
      "matrix": [
        1.0,
        0.0,
        0.0,
        0.0,
        0.0,
        -1.0000001192092896,
        1.6292069915380125e-07,
        0.0,
        0.0,
        -1.6292069915380125e-07,
        -1.0000001192092896,
        0.0,
        -0.8805074951171875,
        0.4172193492889404,
        -0.9294781494140625,
        1.0
      ]
    }
  ],
  "samplers": [
    {
      "magFilter": 9729,
      "minFilter": 9729,
      "wrapS": 10497,
      "wrapT": 10497
    },
    {
      "magFilter": 9729,
      "minFilter": 9729,
      "wrapS": 10497,
      "wrapT": 10497
    }
  ],
  "scenes": [
    {
      "nodes": [
        1
      ]
    }
  ],
  "textures": [
    {
      "name": "texture_source0_sampler0",
      "sampler": 0,
      "source": 0
    },
    {
      "name": "texture_source1_sampler1",
      "sampler": 1,
      "source": 1
    }
  ]
}
