{
  "accessors": [
    {
      "bufferView": 0,
      "componentType": 5126,
      "count": 1072,
      "max": [
        -26.65599822998047,
        -14.9165678024292,
        36.44771957397461
      ],
      "min": [
        -51.10398864746094,
        -34.73882293701172,
        -41.8341064453125
      ],
      "type": "VEC3"
    },
    {
      "bufferView": 0,
      "byteOffset": 12,
      "componentType": 5126,
      "count": 1072,
      "type": "VEC3"
    },
    {
      "bufferView": 0,
      "byteOffset": 24,
      "componentType": 5126,
      "count": 1072,
      "type": "VEC2"
    },
    {
      "bufferView": 1,
      "componentType": 5125,
      "count": 4536,
      "type": "SCALAR"
    },
    {
      "bufferView": 0,
      "byteOffset": 34304,
      "componentType": 5126,
      "count": 23903,
      "max": [
        -16.137226104736328,
        -7.559690475463867,
        38.915008544921875
      ],
      "min": [
        -53.07200622558594,
        -35.073665618896484,
        -43.14934539794922
      ],
      "type": "VEC3"
    },
    {
      "bufferView": 0,
      "byteOffset": 34316,
      "componentType": 5126,
      "count": 23903,
      "type": "VEC3"
    },
    {
      "bufferView": 0,
      "byteOffset": 34328,
      "componentType": 5126,
      "count": 23903,
      "type": "VEC2"
    },
    {
      "bufferView": 1,
      "byteOffset": 18144,
      "componentType": 5125,
      "count": 105312,
      "type": "SCALAR"
    }
  ],
  "asset": {
    "version": "2.0"
  },
  "bufferViews": [
    {
      "buffer": 0,
      "byteLength": 799200,
      "byteStride": 32,
      "target": 34962
    },
    {
      "buffer": 0,
      "byteLength": 439392,
      "byteOffset": 799200,
      "target": 34963
    }
  ],
  "buffers": [
    {
      "byteLength": 1238592,
      "uri": "levante_s_female_mirror.bin"
    }
  ],
  "images": [
    {
      "uri": "duotonebasecolortexture.png"
    },
    {
      "uri": "fabric_01basecolortexture.png"
    }
  ],
  "materials": [
    {
      "name": "duotone",
      "pbrMetallicRoughness": {
        "baseColorFactor": [
          0.6130970120429993,
          0.07019370049238205,
          0.020615600049495697,
          1.0
        ],
        "baseColorTexture": {
          "index": 0
        },
        "metallicFactor": 0.0,
        "roughnessFactor": 0.0
      }
    },
    {
      "name": "fabric_01",
      "pbrMetallicRoughness": {
        "baseColorFactor": [
          0.0473795011639595,
          0.013452400453388691,
          0.8698149919509888,
          1.0
        ],
        "baseColorTexture": {
          "index": 1
        },
        "metallicFactor": 0.0,
        "roughnessFactor": 0.0
      }
    }
  ],
  "meshes": [
    {
      "name": "levante_s_female001",
      "primitives": [
        {
          "attributes": {
            "NORMAL": 1,
            "POSITION": 0,
            "TEXCOORD_0": 2
          },
          "indices": 3,
          "material": 0,
          "mode": 4
        },
        {
          "attributes": {
            "NORMAL": 5,
            "POSITION": 4,
            "TEXCOORD_0": 6
          },
          "indices": 7,
          "material": 1,
          "mode": 4
        }
      ]
    }
  ],
  "nodes": [
    {
      "matrix": [
        0.0254,
        0.0,
        0.0,
        0.0,
        0.0,
        0.0254,
        0.0,
        0.0,
        0.0,
        0.0,
        0.0254,
        0.0,
        0.0,
        0.0,
        0.0,
        1.0
      ],
      "mesh": 0,
      "name": "levante_s_female001"
    },
    {
      "children": [
        0
      ],
      "matrix": [
        1.0,
        0.0,
        0.0,
        0.0,
        0.0,
        -1.0000001192092896,
        1.6292069915380125e-07,
        0.0,
        0.0,
        -1.6292069915380125e-07,
        -1.0000001192092896,
        0.0,
        0.0,
        0.0,
        0.0,
        1.0
      ]
    }
  ],
  "samplers": [
    {
      "magFilter": 9729,
      "minFilter": 9729,
      "wrapS": 10497,
      "wrapT": 10497
    },
    {
      "magFilter": 9729,
      "minFilter": 9729,
      "wrapS": 10497,
      "wrapT": 10497
    }
  ],
  "scenes": [
    {
      "nodes": [
        1
      ]
    }
  ],
  "textures": [
    {
      "name": "texture_source0_sampler0",
      "sampler": 0,
      "source": 0
    },
    {
      "name": "texture_source1_sampler1",
      "sampler": 1,
      "source": 1
    }
  ]
}
