{
  "accessors": [
    {
      "bufferView": 0,
      "componentType": 5126,
      "count": 107,
      "max": [
        3.931650400161743,
        2.689988613128662,
        1.342904806137085
      ],
      "min": [
        -3.965012311935425,
        -16.14881706237793,
        -0.960490345954895
      ],
      "type": "VEC3"
    },
    {
      "bufferView": 0,
      "byteOffset": 12,
      "componentType": 5126,
      "count": 107,
      "type": "VEC3"
    },
    {
      "bufferView": 1,
      "componentType": 5125,
      "count": 519,
      "type": "SCALAR"
    },
    {
      "bufferView": 0,
      "byteOffset": 3424,
      "componentType": 5126,
      "count": 5,
      "max": [
        -3.9497623443603516,
        -15.131421089172363,
        1.0233012437820435
      ],
      "min": [
        -4.102780342102051,
        -15.616077423095703,
        0.8048986196517944
      ],
      "type": "VEC3"
    },
    {
      "bufferView": 0,
      "byteOffset": 3436,
      "componentType": 5126,
      "count": 5,
      "type": "VEC3"
    },
    {
      "bufferView": 1,
      "byteOffset": 2076,
      "componentType": 5125,
      "count": 9,
      "type": "SCALAR"
    },
    {
      "bufferView": 0,
      "byteOffset": 3584,
      "componentType": 5126,
      "count": 23247,
      "max": [
        68.49159240722656,
        18.365737915039063,
        18.30949592590332
      ],
      "min": [
        -6.611287593841553,
        -26.799243927001953,
        -8.866267204284668
      ],
      "type": "VEC3"
    },
    {
      "bufferView": 0,
      "byteOffset": 3596,
      "componentType": 5126,
      "count": 23247,
      "type": "VEC3"
    },
    {
      "bufferView": 0,
      "byteOffset": 3608,
      "componentType": 5126,
      "count": 23247,
      "type": "VEC2"
    },
    {
      "bufferView": 1,
      "byteOffset": 2112,
      "componentType": 5125,
      "count": 104766,
      "type": "SCALAR"
    },
    {
      "bufferView": 0,
      "byteOffset": 747488,
      "componentType": 5126,
      "count": 824,
      "max": [
        67.97172546386719,
        15.929189682006836,
        18.002981185913086
      ],
      "min": [
        -4.439836025238037,
        -15.898618698120117,
        -1.7030901908874512
      ],
      "type": "VEC3"
    },
    {
      "bufferView": 0,
      "byteOffset": 747500,
      "componentType": 5126,
      "count": 824,
      "type": "VEC3"
    },
    {
      "bufferView": 0,
      "byteOffset": 747512,
      "componentType": 5126,
      "count": 824,
      "type": "VEC2"
    },
    {
      "bufferView": 1,
      "byteOffset": 421176,
      "componentType": 5125,
      "count": 3462,
      "type": "SCALAR"
    }
  ],
  "asset": {
    "version": "2.0"
  },
  "bufferViews": [
    {
      "buffer": 0,
      "byteLength": 773856,
      "byteStride": 32,
      "target": 34962
    },
    {
      "buffer": 0,
      "byteLength": 435024,
      "byteOffset": 773856,
      "target": 34963
    }
  ],
  "buffers": [
    {
      "byteLength": 1208880,
      "uri": "levante_s_male.bin"
    }
  ],
  "images": [
    {
      "uri": "boucle_Normal.png"
    },
    {
      "uri": "defaultbasecolortexture.jpeg"
    },
    {
      "uri": "defaultmetallicroughnesstex.jpeg"
    },
    {
      "uri": "boucle_Normal.png"
    },
    {
      "uri": "duotonemetallicroughnesstex.jpeg"
    }
  ],
  "materials": [
    {
      "name": "Material__390",
      "pbrMetallicRoughness": {
        "baseColorFactor": [
          0.5,
          0.5,
          0.5,
          1.0
        ],
        "metallicFactor": 0.0,
        "roughnessFactor": 0.0
      }
    },
    {
      "name": "Material__394",
      "pbrMetallicRoughness": {
        "baseColorFactor": [
          0.5,
          0.5,
          0.5,
          1.0
        ],
        "metallicFactor": 0.0,
        "roughnessFactor": 0.0
      }
    },
    {
      "name": "default",
      "normalTexture": {
        "index": 0,
        "scale": -1.0
      },
      "pbrMetallicRoughness": {
        "baseColorTexture": {
          "index": 1
        },
        "metallicFactor": 0.0,
        "metallicRoughnessTexture": {
          "index": 2
        },
        "roughnessFactor": 0.0
      }
    },
    {
      "name": "duotone",
      "normalTexture": {
        "index": 3,
        "scale": -1.0
      },
      "pbrMetallicRoughness": {
        "baseColorFactor": [
          0.0759321004152298,
          0.0,
          0.9491530060768127,
          1.0
        ],
        "metallicFactor": 0.0,
        "metallicRoughnessTexture": {
          "index": 4
        },
        "roughnessFactor": 0.0
      }
    }
  ],
  "meshes": [
    {
      "name": "levante_s_male",
      "primitives": [
        {
          "attributes": {
            "NORMAL": 1,
            "POSITION": 0
          },
          "indices": 2,
          "material": 0,
          "mode": 4
        },
        {
          "attributes": {
            "NORMAL": 4,
            "POSITION": 3
          },
          "indices": 5,
          "material": 1,
          "mode": 4
        },
        {
          "attributes": {
            "NORMAL": 7,
            "POSITION": 6,
            "TEXCOORD_0": 8
          },
          "indices": 9,
          "material": 2,
          "mode": 4
        },
        {
          "attributes": {
            "NORMAL": 11,
            "POSITION": 10,
            "TEXCOORD_0": 12
          },
          "indices": 13,
          "material": 3,
          "mode": 4
        }
      ]
    }
  ],
  "nodes": [
    {
      "matrix": [
        0.0254,
        0.0,
        0.0,
        0.0,
        0.0,
        0.0254,
        0.0,
        0.0,
        0.0,
        0.0,
        0.0254,
        0.0,
        0.0,
        0.0,
        0.0,
        1.0
      ],
      "mesh": 0,
      "name": "levante_s_male"
    },
    {
      "children": [
        0
      ],
      "matrix": [
        1.0,
        0.0,
        0.0,
        0.0,
        0.0,
        0.0,
        -1.0,
        0.0,
        0.0,
        1.0,
        0.0,
        0.0,
        -0.8805074951171875,
        0.4172193492889404,
        -0.9294781494140625,
        1.0
      ]
    }
  ],
  "samplers": [
    {
      "magFilter": 9729,
      "minFilter": 9729,
      "wrapS": 10497,
      "wrapT": 10497
    },
    {
      "magFilter": 9729,
      "minFilter": 9729,
      "wrapS": 10497,
      "wrapT": 10497
    },
    {
      "magFilter": 9729,
      "minFilter": 9729,
      "wrapS": 10497,
      "wrapT": 10497
    },
    {
      "magFilter": 9729,
      "minFilter": 9729,
      "wrapS": 10497,
      "wrapT": 10497
    },
    {
      "magFilter": 9729,
      "minFilter": 9729,
      "wrapS": 10497,
      "wrapT": 10497
    }
  ],
  "scenes": [
    {
      "nodes": [
        1
      ]
    }
  ],
  "textures": [
    {
      "name": "texture_source0_sampler0",
      "sampler": 0,
      "source": 0
    },
    {
      "name": "texture_source1_sampler1",
      "sampler": 1,
      "source": 1
    },
    {
      "name": "texture_source2_sampler2",
      "sampler": 2,
      "source": 2
    },
    {
      "name": "texture_source3_sampler3",
      "sampler": 3,
      "source": 3
    },
    {
      "name": "texture_source4_sampler4",
      "sampler": 4,
      "source": 4
    }
  ]
}
