{
  "accessors": [
    {
      "bufferView": 0,
      "componentType": 5126,
      "count": 1116,
      "max": [
        28.337759017944336,
        2.1031036376953125,
        4.647429466247559
      ],
      "min": [
        -3.8188514709472656,
        -24.632455825805664,
        -4.579263687133789
      ],
      "type": "VEC3"
    },
    {
      "bufferView": 0,
      "byteOffset": 12,
      "componentType": 5126,
      "count": 1116,
      "type": "VEC3"
    },
    {
      "bufferView": 1,
      "componentType": 5125,
      "count": 4752,
      "type": "SCALAR"
    },
    {
      "bufferView": 0,
      "byteOffset": 35712,
      "componentType": 5126,
      "count": 1452,
      "max": [
        28.213909149169922,
        2.074960708618164,
        -4.520414352416992
      ],
      "min": [
        -3.5373024940490723,
        -24.43562126159668,
        -4.647428512573242
      ],
      "type": "VEC3"
    },
    {
      "bufferView": 0,
      "byteOffset": 35724,
      "componentType": 5126,
      "count": 1452,
      "type": "VEC3"
    },
    {
      "bufferView": 1,
      "byteOffset": 19008,
      "componentType": 5125,
      "count": 6156,
      "type": "SCALAR"
    }
  ],
  "asset": {
    "version": "2.0"
  },
  "bufferViews": [
    {
      "buffer": 0,
      "byteLength": 82176,
      "byteStride": 32,
      "target": 34962
    },
    {
      "buffer": 0,
      "byteLength": 43632,
      "byteOffset": 82176,
      "target": 34963
    }
  ],
  "buffers": [
    {
      "byteLength": 125808,
      "uri": "levante_legs_footstool.bin"
    }
  ],
  "materials": [
    {
      "name": "Material__394",
      "pbrMetallicRoughness": {
        "baseColorFactor": [
          0.5,
          0.5,
          0.5,
          1.0
        ],
        "metallicFactor": 0.0,
        "roughnessFactor": 0.0
      }
    },
    {
      "name": "Material__396",
      "pbrMetallicRoughness": {
        "baseColorFactor": [
          0.5,
          0.5,
          0.5,
          1.0
        ],
        "metallicFactor": 0.0,
        "roughnessFactor": 0.0
      }
    }
  ],
  "meshes": [
    {
      "name": "leg_footstool",
      "primitives": [
        {
          "attributes": {
            "NORMAL": 1,
            "POSITION": 0
          },
          "indices": 2,
          "material": 0,
          "mode": 4
        },
        {
          "attributes": {
            "NORMAL": 4,
            "POSITION": 3
          },
          "indices": 5,
          "material": 1,
          "mode": 4
        }
      ]
    }
  ],
  "nodes": [
    {
      "matrix": [
        0.0254,
        0.0,
        0.0,
        0.0,
        0.0,
        0.0254,
        0.0,
        0.0,
        0.0,
        0.0,
        0.0254,
        0.0,
        0.0,
        0.0,
        0.0,
        1.0
      ],
      "mesh": 0,
      "name": "leg_footstool"
    },
    {
      "children": [
        0
      ],
      "matrix": [
        1.0,
        0.0,
        -1.7484555314695172e-07,
        0.0,
        -1.7484555314695172e-07,
        0.0,
        -1.0,
        0.0,
        0.0,
        1.0,
        0.0,
        0.0,
        -0.34181510982513424,
        0.08804472274780273,
        -0.23500220127105712,
        1.0
      ]
    }
  ],
  "scenes": [
    {
      "nodes": [
        1
      ]
    }
  ]
}
