{
  "accessors": [
    {
      "bufferView": 0,
      "componentType": 5126,
      "count": 1032,
      "max": [
        8.7902250289917,
        12.725412368774414,
        -1.0540847778320313
      ],
      "min": [
        -17.85746192932129,
        -18.950672149658203,
        -1.181100845336914
      ],
      "type": "VEC3"
    },
    {
      "bufferView": 0,
      "byteOffset": 12,
      "componentType": 5126,
      "count": 1032,
      "type": "VEC3"
    },
    {
      "bufferView": 1,
      "componentType": 5125,
      "count": 6156,
      "type": "SCALAR"
    },
    {
      "bufferView": 0,
      "byteOffset": 33024,
      "componentType": 5126,
      "count": 798,
      "max": [
        8.843731880187988,
        12.97944450378418,
        8.11375904083252
      ],
      "min": [
        -18.08115005493164,
        -19.047611236572266,
        -1.112936019897461
      ],
      "type": "VEC3"
    },
    {
      "bufferView": 0,
      "byteOffset": 33036,
      "componentType": 5126,
      "count": 798,
      "type": "VEC3"
    },
    {
      "bufferView": 1,
      "byteOffset": 24624,
      "componentType": 5125,
      "count": 4752,
      "type": "SCALAR"
    }
  ],
  "asset": {
    "version": "2.0"
  },
  "bufferViews": [
    {
      "buffer": 0,
      "byteLength": 58560,
      "byteStride": 32,
      "target": 34962
    },
    {
      "buffer": 0,
      "byteLength": 43632,
      "byteOffset": 58560,
      "target": 34963
    }
  ],
  "buffers": [
    {
      "byteLength": 102192,
      "uri": "levante_legs_footstool_mirror.bin"
    }
  ],
  "materials": [
    {
      "name": "black",
      "pbrMetallicRoughness": {
        "baseColorFactor": [
          0.09220340102910995,
          3.030750050925235e-08,
          0.1016950011253357,
          1.0
        ],
        "metallicFactor": 0.0,
        "roughnessFactor": 0.0
      }
    },
    {
      "name": "leg",
      "pbrMetallicRoughness": {
        "baseColorFactor": [
          0.0,
          0.9599999785423279,
          1.0,
          1.0
        ],
        "metallicFactor": 0.0,
        "roughnessFactor": 0.0
      }
    }
  ],
  "meshes": [
    {
      "name": "leg_footstool001",
      "primitives": [
        {
          "attributes": {
            "NORMAL": 1,
            "POSITION": 0
          },
          "indices": 2,
          "material": 0,
          "mode": 4
        },
        {
          "attributes": {
            "NORMAL": 4,
            "POSITION": 3
          },
          "indices": 5,
          "material": 1,
          "mode": 4
        }
      ]
    }
  ],
  "nodes": [
    {
      "matrix": [
        0.0254,
        0.0,
        0.0,
        0.0,
        0.0,
        0.0254,
        0.0,
        0.0,
        0.0,
        0.0,
        0.0254,
        0.0,
        0.0,
        0.0,
        0.0,
        1.0
      ],
      "mesh": 0,
      "name": "leg_footstool001"
    },
    {
      "children": [
        0
      ],
      "matrix": [
        1.0,
        0.0,
        -1.7484555314695172e-07,
        0.0,
        -1.7484555314695172e-07,
        0.0,
        -1.0,
        0.0,
        0.0,
        1.0,
        0.0,
        0.0,
        0.0,
        0.0,
        0.0,
        1.0
      ]
    }
  ],
  "scenes": [
    {
      "nodes": [
        1
      ]
    }
  ]
}
