{
  "accessors": [
    {
      "bufferView": 0,
      "componentType": 5126,
      "count": 970,
      "max": [
        6.946599960327148,
        11.428153038024902,
        -17.480043411254883
      ],
      "min": [
        -1.670644760131836,
        -15.05088996887207,
        -17.607059478759766
      ],
      "type": "VEC3"
    },
    {
      "bufferView": 0,
      "byteOffset": 12,
      "componentType": 5126,
      "count": 970,
      "type": "VEC3"
    },
    {
      "bufferView": 1,
      "componentType": 5125,
      "count": 4104,
      "type": "SCALAR"
    },
    {
      "bufferView": 0,
      "byteOffset": 31040,
      "componentType": 5126,
      "count": 759,
      "max": [
        8.977641105651855,
        11.723200798034668,
        -8.312201499938965
      ],
      "min": [
        -1.7575006484985352,
        -15.267383575439453,
        -17.538898468017578
      ],
      "type": "VEC3"
    },
    {
      "bufferView": 0,
      "byteOffset": 31052,
      "componentType": 5126,
      "count": 759,
      "type": "VEC3"
    },
    {
      "bufferView": 1,
      "byteOffset": 16416,
      "componentType": 5125,
      "count": 3168,
      "type": "SCALAR"
    }
  ],
  "asset": {
    "version": "2.0"
  },
  "bufferViews": [
    {
      "buffer": 0,
      "byteLength": 55328,
      "byteStride": 32,
      "target": 34962
    },
    {
      "buffer": 0,
      "byteLength": 29088,
      "byteOffset": 55328,
      "target": 34963
    }
  ],
  "buffers": [
    {
      "byteLength": 84416,
      "uri": "levante_leg_corner_left.bin"
    }
  ],
  "materials": [
    {
      "name": "black",
      "pbrMetallicRoughness": {
        "baseColorFactor": [
          0.09220340102910995,
          3.030750050925235e-08,
          0.1016950011253357,
          1.0
        ],
        "metallicFactor": 0.0,
        "roughnessFactor": 0.0
      }
    },
    {
      "name": "leg",
      "pbrMetallicRoughness": {
        "baseColorFactor": [
          0.0,
          0.9599999785423279,
          1.0,
          1.0
        ],
        "metallicFactor": 0.0,
        "roughnessFactor": 0.0
      }
    }
  ],
  "meshes": [
    {
      "name": "leg_corner_left",
      "primitives": [
        {
          "attributes": {
            "NORMAL": 1,
            "POSITION": 0
          },
          "indices": 2,
          "material": 0,
          "mode": 4
        },
        {
          "attributes": {
            "NORMAL": 4,
            "POSITION": 3
          },
          "indices": 5,
          "material": 1,
          "mode": 4
        }
      ]
    }
  ],
  "nodes": [
    {
      "matrix": [
        0.0254,
        0.0,
        0.0,
        0.0,
        0.0,
        0.0254,
        0.0,
        0.0,
        0.0,
        0.0,
        0.0254,
        0.0,
        0.0,
        0.0,
        0.0,
        1.0
      ],
      "mesh": 0,
      "name": "leg_corner_left"
    },
    {
      "children": [
        0
      ],
      "matrix": [
        1.0,
        0.0,
        0.0,
        0.0,
        0.0,
        0.0,
        -1.0,
        0.0,
        0.0,
        1.0,
        0.0,
        0.0,
        -0.8805074951171875,
        0.4172193492889404,
        -0.9294781494140625,
        1.0
      ]
    }
  ],
  "scenes": [
    {
      "nodes": [
        1
      ]
    }
  ]
}
