{
  "accessors": [
    {
      "bufferView": 0,
      "componentType": 5126,
      "count": 968,
      "max": [
        29.969310760498047,
        6.659195423126221,
        -1.0551872253417969
      ],
      "min": [
        26.557567596435547,
        -20.0683650970459,
        -1.1823539733886719
      ],
      "type": "VEC3"
    },
    {
      "bufferView": 0,
      "byteOffset": 12,
      "componentType": 5126,
      "count": 968,
      "type": "VEC3"
    },
    {
      "bufferView": 1,
      "componentType": 5125,
      "count": 4104,
      "type": "SCALAR"
    },
    {
      "bufferView": 0,
      "byteOffset": 30976,
      "componentType": 5126,
      "count": 752,
      "max": [
        30.007274627685547,
        6.922291278839111,
        8.178380966186523
      ],
      "min": [
        23.697147369384766,
        -20.331571578979492,
        -1.1141891479492188
      ],
      "type": "VEC3"
    },
    {
      "bufferView": 0,
      "byteOffset": 30988,
      "componentType": 5126,
      "count": 752,
      "type": "VEC3"
    },
    {
      "bufferView": 1,
      "byteOffset": 16416,
      "componentType": 5125,
      "count": 3168,
      "type": "SCALAR"
    }
  ],
  "asset": {
    "version": "2.0"
  },
  "bufferViews": [
    {
      "buffer": 0,
      "byteLength": 55040,
      "byteStride": 32,
      "target": 34962
    },
    {
      "buffer": 0,
      "byteLength": 29088,
      "byteOffset": 55040,
      "target": 34963
    }
  ],
  "buffers": [
    {
      "byteLength": 84128,
      "uri": "levante_legs_sofa.bin"
    }
  ],
  "materials": [
    {
      "name": "black",
      "pbrMetallicRoughness": {
        "baseColorFactor": [
          0.09220340102910995,
          3.030750050925235e-08,
          0.1016950011253357,
          1.0
        ],
        "metallicFactor": 0.0,
        "roughnessFactor": 0.0
      }
    },
    {
      "name": "leg",
      "pbrMetallicRoughness": {
        "baseColorFactor": [
          0.0,
          0.9599999785423279,
          1.0,
          1.0
        ],
        "metallicFactor": 0.0,
        "roughnessFactor": 0.0
      }
    }
  ],
  "meshes": [
    {
      "name": "legs_sofa",
      "primitives": [
        {
          "attributes": {
            "NORMAL": 1,
            "POSITION": 0
          },
          "indices": 2,
          "material": 0,
          "mode": 4
        },
        {
          "attributes": {
            "NORMAL": 4,
            "POSITION": 3
          },
          "indices": 5,
          "material": 1,
          "mode": 4
        }
      ]
    }
  ],
  "nodes": [
    {
      "matrix": [
        0.0254,
        0.0,
        0.0,
        0.0,
        0.0,
        0.0254,
        0.0,
        0.0,
        0.0,
        0.0,
        0.0254,
        0.0,
        0.0,
        0.0,
        0.0,
        1.0
      ],
      "mesh": 0,
      "name": "legs_sofa"
    },
    {
      "children": [
        0
      ],
      "matrix": [
        1.0,
        0.0,
        0.0,
        0.0,
        0.0,
        0.0,
        -1.0,
        0.0,
        0.0,
        1.0,
        0.0,
        0.0,
        0.0,
        0.0,
        0.0,
        1.0
      ]
    }
  ],
  "scenes": [
    {
      "nodes": [
        1
      ]
    }
  ]
}
