{
  "accessors": [
    {
      "bufferView": 0,
      "componentType": 5126,
      "count": 18336,
      "max": [
        39.25727081298828,
        5.8849053382873535,
        25.056669235229492
      ],
      "min": [
        -15.645493507385254,
        -22.211196899414063,
        -37.52333068847656
      ],
      "type": "VEC3"
    },
    {
      "bufferView": 0,
      "byteOffset": 12,
      "componentType": 5126,
      "count": 18336,
      "type": "VEC3"
    },
    {
      "bufferView": 0,
      "byteOffset": 24,
      "componentType": 5126,
      "count": 18336,
      "type": "VEC2"
    },
    {
      "bufferView": 1,
      "componentType": 5125,
      "count": 80844,
      "type": "SCALAR"
    }
  ],
  "asset": {
    "version": "2.0"
  },
  "bufferViews": [
    {
      "buffer": 0,
      "byteLength": 586752,
      "byteStride": 32,
      "target": 34962
    },
    {
      "buffer": 0,
      "byteLength": 323376,
      "byteOffset": 586752,
      "target": 34963
    }
  ],
  "buffers": [
    {
      "byteLength": 910128,
      "uri": "levante_longchair_mirror.bin"
    }
  ],
  "images": [
    {
      "uri": "M_02___Defaultbasecolortexture.png"
    }
  ],
  "materials": [
    {
      "name": "M_02___Default",
      "pbrMetallicRoughness": {
        "baseColorTexture": {
          "index": 0
        },
        "metallicFactor": 0.0,
        "roughnessFactor": 0.0
      }
    }
  ],
  "meshes": [
    {
      "name": "longchair_mirror",
      "primitives": [
        {
          "attributes": {
            "NORMAL": 1,
            "POSITION": 0,
            "TEXCOORD_0": 2
          },
          "indices": 3,
          "material": 0,
          "mode": 4
        }
      ]
    }
  ],
  "nodes": [
    {
      "matrix": [
        0.0254,
        0.0,
        0.0,
        0.0,
        0.0,
        0.0254,
        0.0,
        0.0,
        0.0,
        0.0,
        0.0254,
        0.0,
        0.0,
        0.0,
        0.0,
        1.0
      ],
      "mesh": 0,
      "name": "longchair_mirror"
    },
    {
      "children": [
        0
      ],
      "matrix": [
        -0.9773557186126709,
        4.0565728554042835e-09,
        0.21160277724266052,
        0.0,
        -1.3214164873431855e-08,
        -1.0,
        -4.186319557675233e-08,
        0.0,
        -0.21160277724266052,
        4.371138828673793e-08,
        -0.9773557186126709,
        0.0,
        -0.8207034904479981,
        0.3220579339981079,
        -0.34537458248138425,
        1.0
      ]
    }
  ],
  "samplers": [
    {
      "magFilter": 9729,
      "minFilter": 9729,
      "wrapS": 10497,
      "wrapT": 10497
    }
  ],
  "scenes": [
    {
      "nodes": [
        1
      ]
    }
  ],
  "textures": [
    {
      "name": "texture_source0_sampler0",
      "sampler": 0,
      "source": 0
    }
  ]
}
