{
  "accessors": [
    {
      "bufferView": 0,
      "componentType": 5126,
      "count": 107,
      "max": [
        3.931650400161743,
        2.689988613128662,
        1.342904806137085
      ],
      "min": [
        -3.965012311935425,
        -16.14881706237793,
        -0.960490345954895
      ],
      "type": "VEC3"
    },
    {
      "bufferView": 0,
      "byteOffset": 12,
      "componentType": 5126,
      "count": 107,
      "type": "VEC3"
    },
    {
      "bufferView": 1,
      "componentType": 5125,
      "count": 519,
      "type": "SCALAR"
    },
    {
      "bufferView": 0,
      "byteOffset": 3424,
      "componentType": 5126,
      "count": 5,
      "max": [
        -3.9497623443603516,
        -15.131421089172363,
        1.0233012437820435
      ],
      "min": [
        -4.102780342102051,
        -15.616077423095703,
        0.8048986196517944
      ],
      "type": "VEC3"
    },
    {
      "bufferView": 0,
      "byteOffset": 3436,
      "componentType": 5126,
      "count": 5,
      "type": "VEC3"
    },
    {
      "bufferView": 1,
      "byteOffset": 2076,
      "componentType": 5125,
      "count": 9,
      "type": "SCALAR"
    },
    {
      "bufferView": 0,
      "byteOffset": 3584,
      "componentType": 5126,
      "count": 18097,
      "max": [
        68.49159240722656,
        18.365737915039063,
        18.30949592590332
      ],
      "min": [
        -6.611287593841553,
        -26.799243927001953,
        -8.866267204284668
      ],
      "type": "VEC3"
    },
    {
      "bufferView": 0,
      "byteOffset": 3596,
      "componentType": 5126,
      "count": 18097,
      "type": "VEC3"
    },
    {
      "bufferView": 1,
      "byteOffset": 2112,
      "componentType": 5125,
      "count": 104766,
      "type": "SCALAR"
    },
    {
      "bufferView": 0,
      "byteOffset": 582688,
      "componentType": 5126,
      "count": 722,
      "max": [
        67.97172546386719,
        15.929189682006836,
        18.002981185913086
      ],
      "min": [
        -4.439836025238037,
        -15.898618698120117,
        -1.7030901908874512
      ],
      "type": "VEC3"
    },
    {
      "bufferView": 0,
      "byteOffset": 582700,
      "componentType": 5126,
      "count": 722,
      "type": "VEC3"
    },
    {
      "bufferView": 1,
      "byteOffset": 421176,
      "componentType": 5125,
      "count": 3462,
      "type": "SCALAR"
    }
  ],
  "asset": {
    "version": "2.0"
  },
  "bufferViews": [
    {
      "buffer": 0,
      "byteLength": 605792,
      "byteStride": 32,
      "target": 34962
    },
    {
      "buffer": 0,
      "byteLength": 435024,
      "byteOffset": 605792,
      "target": 34963
    }
  ],
  "buffers": [
    {
      "byteLength": 1040816,
      "uri": "levante_s_male.bin"
    }
  ],
  "materials": [
    {
      "name": "Material__390",
      "pbrMetallicRoughness": {
        "baseColorFactor": [
          0.5,
          0.5,
          0.5,
          1.0
        ],
        "metallicFactor": 0.0,
        "roughnessFactor": 0.0
      }
    },
    {
      "name": "Material__394",
      "pbrMetallicRoughness": {
        "baseColorFactor": [
          0.5,
          0.5,
          0.5,
          1.0
        ],
        "metallicFactor": 0.0,
        "roughnessFactor": 0.0
      }
    },
    {
      "name": "default",
      "pbrMetallicRoughness": {
        "baseColorFactor": [
          0.0,
          0.1333329975605011,
          1.0,
          1.0
        ],
        "metallicFactor": 0.0,
        "roughnessFactor": 0.0
      }
    },
    {
      "name": "duotone",
      "pbrMetallicRoughness": {
        "baseColorFactor": [
          1.0,
          0.34666699171066284,
          0.0,
          1.0
        ],
        "metallicFactor": 0.0,
        "roughnessFactor": 0.0
      }
    }
  ],
  "meshes": [
    {
      "name": "levante_s_male",
      "primitives": [
        {
          "attributes": {
            "NORMAL": 1,
            "POSITION": 0
          },
          "indices": 2,
          "material": 0,
          "mode": 4
        },
        {
          "attributes": {
            "NORMAL": 4,
            "POSITION": 3
          },
          "indices": 5,
          "material": 1,
          "mode": 4
        },
        {
          "attributes": {
            "NORMAL": 7,
            "POSITION": 6
          },
          "indices": 8,
          "material": 2,
          "mode": 4
        },
        {
          "attributes": {
            "NORMAL": 10,
            "POSITION": 9
          },
          "indices": 11,
          "material": 3,
          "mode": 4
        }
      ]
    }
  ],
  "nodes": [
    {
      "matrix": [
        0.0254,
        0.0,
        0.0,
        0.0,
        0.0,
        0.0254,
        0.0,
        0.0,
        0.0,
        0.0,
        0.0254,
        0.0,
        0.0,
        0.0,
        0.0,
        1.0
      ],
      "mesh": 0,
      "name": "levante_s_male"
    },
    {
      "children": [
        0
      ],
      "matrix": [
        1.0,
        0.0,
        0.0,
        0.0,
        0.0,
        0.0,
        -1.0,
        0.0,
        0.0,
        1.0,
        0.0,
        0.0,
        -0.8805074951171875,
        0.4172193492889404,
        -0.9294781494140625,
        1.0
      ]
    }
  ],
  "scenes": [
    {
      "nodes": [
        1
      ]
    }
  ]
}
