{
  "accessors": [
    {
      "bufferView": 0,
      "componentType": 5126,
      "count": 1936,
      "max": [
        29.969310760498047,
        6.659195423126221,
        -1.0551878213882446
      ],
      "min": [
        -29.969310760498047,
        -20.0683650970459,
        -1.1823523044586182
      ],
      "type": "VEC3"
    },
    {
      "bufferView": 0,
      "byteOffset": 12,
      "componentType": 5126,
      "count": 1936,
      "type": "VEC3"
    },
    {
      "bufferView": 1,
      "componentType": 5125,
      "count": 8208,
      "type": "SCALAR"
    },
    {
      "bufferView": 0,
      "byteOffset": 61952,
      "componentType": 5126,
      "count": 1504,
      "max": [
        30.007274627685547,
        6.922291278839111,
        8.178380966186523
      ],
      "min": [
        -30.007274627685547,
        -20.331571578979492,
        -1.1141873598098755
      ],
      "type": "VEC3"
    },
    {
      "bufferView": 0,
      "byteOffset": 61964,
      "componentType": 5126,
      "count": 1504,
      "type": "VEC3"
    },
    {
      "bufferView": 1,
      "byteOffset": 32832,
      "componentType": 5125,
      "count": 6336,
      "type": "SCALAR"
    }
  ],
  "asset": {
    "version": "2.0"
  },
  "bufferViews": [
    {
      "buffer": 0,
      "byteLength": 110080,
      "byteStride": 32,
      "target": 34962
    },
    {
      "buffer": 0,
      "byteLength": 58176,
      "byteOffset": 110080,
      "target": 34963
    }
  ],
  "buffers": [
    {
      "byteLength": 168256,
      "uri": "levante_legs_sofa_25.bin"
    }
  ],
  "materials": [
    {
      "name": "black",
      "pbrMetallicRoughness": {
        "baseColorFactor": [
          0.09220340102910995,
          3.030750050925235e-08,
          0.1016950011253357,
          1.0
        ],
        "metallicFactor": 0.0,
        "roughnessFactor": 0.0
      }
    },
    {
      "name": "leg",
      "pbrMetallicRoughness": {
        "baseColorFactor": [
          0.0,
          0.9599999785423279,
          1.0,
          1.0
        ],
        "metallicFactor": 0.0,
        "roughnessFactor": 0.0
      }
    }
  ],
  "meshes": [
    {
      "name": "legs_sofa_25",
      "primitives": [
        {
          "attributes": {
            "NORMAL": 1,
            "POSITION": 0
          },
          "indices": 2,
          "material": 0,
          "mode": 4
        },
        {
          "attributes": {
            "NORMAL": 4,
            "POSITION": 3
          },
          "indices": 5,
          "material": 1,
          "mode": 4
        }
      ]
    }
  ],
  "nodes": [
    {
      "matrix": [
        0.0254,
        0.0,
        0.0,
        0.0,
        0.0,
        0.0254,
        0.0,
        0.0,
        0.0,
        0.0,
        0.0254,
        0.0,
        0.0,
        0.0,
        0.0,
        1.0
      ],
      "mesh": 0,
      "name": "legs_sofa_25"
    },
    {
      "children": [
        0
      ],
      "matrix": [
        1.0,
        0.0,
        0.0,
        0.0,
        0.0,
        0.0,
        -1.0,
        0.0,
        0.0,
        1.0,
        0.0,
        0.0,
        0.0,
        0.0,
        0.0,
        1.0
      ]
    }
  ],
  "scenes": [
    {
      "nodes": [
        1
      ]
    }
  ]
}
