{
  "accessors": [
    {
      "bufferView": 0,
      "componentType": 5126,
      "count": 2184,
      "max": [
        31.88152313232422,
        17.122037887573242,
        8.3499755859375
      ],
      "min": [
        -13.933673858642578,
        -11.2983980178833,
        -0.11386891454458237
      ],
      "type": "VEC3"
    },
    {
      "bufferView": 0,
      "byteOffset": 12,
      "componentType": 5126,
      "count": 2184,
      "type": "VEC3"
    },
    {
      "bufferView": 0,
      "byteOffset": 24,
      "componentType": 5126,
      "count": 2184,
      "type": "VEC2"
    },
    {
      "bufferView": 1,
      "componentType": 5125,
      "count": 11904,
      "type": "SCALAR"
    }
  ],
  "asset": {
    "version": "2.0"
  },
  "bufferViews": [
    {
      "buffer": 0,
      "byteLength": 69888,
      "byteStride": 32,
      "target": 34962
    },
    {
      "buffer": 0,
      "byteLength": 47616,
      "byteOffset": 69888,
      "target": 34963
    }
  ],
  "buffers": [
    {
      "byteLength": 117504,
      "uri": "levante_footstool.bin"
    }
  ],
  "extensionsUsed": [
    "KHR_materials_clearcoat",
    "KHR_materials_sheen"
  ],
  "images": [
    {
      "uri": "boucle_Normal.png"
    },
    {
      "uri": "defaultmetallicroughnesstex.jpeg"
    },
    {
      "uri": "boucle_Roughness.jpg"
    },
    {
      "uri": "boucle_Normal.png"
    },
    {
      "uri": "defaultsheenroughnesstex.png"
    }
  ],
  "materials": [
    {
      "extensions": {
        "KHR_materials_clearcoat": {
          "clearcoatFactor": 1.0,
          "clearcoatNormalTexture": {
            "index": 3,
            "texCoord": 0
          },
          "clearcoatRoughnessFactor": 1.0,
          "clearcoatRoughnessTexture": {
            "index": 2,
            "texCoord": 0
          }
        },
        "KHR_materials_sheen": {
          "sheenColorFactor": [
            1.0,
            1.0,
            1.0
          ],
          "sheenRoughnessFactor": 1.0,
          "sheenRoughnessTexture": {
            "index": 4,
            "texCoord": 0
          }
        }
      },
      "name": "default",
      "normalTexture": {
        "index": 0
      },
      "pbrMetallicRoughness": {
        "metallicRoughnessTexture": {
          "index": 1
        }
      }
    }
  ],
  "meshes": [
    {
      "name": "footstool",
      "primitives": [
        {
          "attributes": {
            "NORMAL": 1,
            "POSITION": 0,
            "TEXCOORD_0": 2
          },
          "indices": 3,
          "material": 0,
          "mode": 4
        }
      ]
    }
  ],
  "nodes": [
    {
      "matrix": [
        0.0254,
        0.0,
        0.0,
        0.0,
        0.0,
        0.0254,
        0.0,
        0.0,
        0.0,
        0.0,
        0.0254,
        0.0,
        0.0,
        0.0,
        0.0,
        1.0
      ],
      "mesh": 0,
      "name": "footstool"
    },
    {
      "children": [
        0
      ],
      "matrix": [
        0.6653909683227539,
        2.613463720990694e-07,
        0.7464950680732727,
        0.0,
        0.7464950680732727,
        -2.329521464616846e-07,
        -0.6653909683227539,
        0.0,
        1.2242615775315274e-13,
        1.0,
        -3.5009801990781863e-07,
        0.0,
        -0.14872759819030762,
        0.1950000039100647,
        -6.826911271673453e-08,
        1.0
      ]
    }
  ],
  "samplers": [
    {
      "magFilter": 9729,
      "minFilter": 9729,
      "wrapS": 10497,
      "wrapT": 10497
    },
    {
      "magFilter": 9729,
      "minFilter": 9729,
      "wrapS": 10497,
      "wrapT": 10497
    },
    {
      "magFilter": 9729,
      "minFilter": 9729,
      "wrapS": 10497,
      "wrapT": 10497
    },
    {
      "magFilter": 9729,
      "minFilter": 9729,
      "wrapS": 10497,
      "wrapT": 10497
    },
    {
      "magFilter": 9729,
      "minFilter": 9729,
      "wrapS": 10497,
      "wrapT": 10497
    }
  ],
  "scenes": [
    {
      "nodes": [
        1
      ]
    }
  ],
  "textures": [
    {
      "name": "texture_source0_sampler0",
      "sampler": 0,
      "source": 0
    },
    {
      "name": "texture_source1_sampler1",
      "sampler": 1,
      "source": 1
    },
    {
      "name": "texture_source2_sampler2",
      "sampler": 2,
      "source": 2
    },
    {
      "name": "texture_source3_sampler3",
      "sampler": 3,
      "source": 3
    },
    {
      "name": "texture_source4_sampler4",
      "sampler": 4,
      "source": 4
    }
  ]
}
